<svg width="28" height="20" viewBox="0 0 28 20" fill="none" xmlns="http://www.w3.org/2000/svg">
<path d="M27.5781 1.99317C27.5781 1.25984 26.9835 0.666504 26.2515 0.666504H15.5715C15.2196 0.666504 14.8822 0.806277 14.6334 1.05508C14.3846 1.30387 14.2448 1.64132 14.2448 1.99317C14.2448 2.34502 14.3846 2.68247 14.6334 2.93127C14.8822 3.18006 15.2196 3.31984 15.5715 3.31984H26.2515C26.6033 3.31984 26.9408 3.18006 27.1896 2.93127C27.4384 2.68247 27.5781 2.34502 27.5781 1.99317ZM27.5781 9.99984C27.5781 9.2665 26.9835 8.67317 26.2515 8.67317H2.23813C1.88627 8.67317 1.54883 8.81294 1.30003 9.06174C1.05123 9.31054 0.91146 9.64798 0.91146 9.99984C0.91146 10.3517 1.05123 10.6891 1.30003 10.9379C1.54883 11.1867 1.88627 11.3265 2.23813 11.3265H26.2515C26.6033 11.3265 26.9408 11.1867 27.1896 10.9379C27.4384 10.6891 27.5781 10.3517 27.5781 9.99984ZM26.2515 16.6798C26.6033 16.6798 26.9408 16.8196 27.1896 17.0684C27.4384 17.3172 27.5781 17.6546 27.5781 18.0065C27.5781 18.3584 27.4384 18.6958 27.1896 18.9446C26.9408 19.1934 26.6033 19.3332 26.2515 19.3332H10.2381C9.88627 19.3332 9.54883 19.1934 9.30003 18.9446C9.05123 18.6958 8.91146 18.3584 8.91146 18.0065C8.91146 17.6546 9.05123 17.3172 9.30003 17.0684C9.54883 16.8196 9.88627 16.6798 10.2381 16.6798H26.2515Z" fill="white"/>
</svg>
