<svg width="18" height="14" viewBox="0 0 18 14" fill="none" xmlns="http://www.w3.org/2000/svg">
<path d="M17.2296 2.13776C16.6301 2.4038 15.9861 2.58365 15.3091 2.66449C16.0001 2.25071 16.5294 1.59502 16.7794 0.81463C16.123 1.20449 15.4046 1.47895 14.6555 1.62609C14.0459 0.976266 13.1765 0.570557 12.2147 0.570557C10.3686 0.570557 8.87141 2.06715 8.87141 3.91434C8.87141 4.17606 8.90089 4.4314 8.95756 4.67656C6.17849 4.53689 3.71467 3.20568 2.0655 1.18292C1.77753 1.67694 1.6127 2.25132 1.6127 2.86415C1.6127 4.0241 2.2031 5.04752 3.10019 5.64702C2.56913 5.63056 2.04972 5.48722 1.58538 5.22897V5.27122C1.58538 6.89147 2.73782 8.24248 4.2676 8.54975C3.98658 8.62674 3.69166 8.66697 3.38656 8.66697C3.17085 8.66697 2.96156 8.64655 2.75711 8.6081C3.18263 9.93611 4.41754 10.9028 5.88034 10.9301C4.73594 11.8272 3.29394 12.3619 1.72777 12.3619C1.45802 12.3619 1.19141 12.3458 0.929688 12.3143C2.40971 13.2633 4.16699 13.8173 6.0554 13.8173C12.2056 13.8173 15.5692 8.72213 15.5692 4.30352C15.5692 4.15845 15.566 4.01447 15.559 3.87101C16.2144 3.397 16.7801 2.81009 17.2296 2.13776Z" fill="#8807F7"/>
</svg>
