<svg width="5" height="8" viewBox="0 0 5 8" fill="none" xmlns="http://www.w3.org/2000/svg">
<path d="M4.11182 0.512272C4.06687 0.467211 4.01348 0.43146 3.95469 0.407067C3.89591 0.382673 3.83288 0.370117 3.76924 0.370117C3.70559 0.370117 3.64257 0.382673 3.58379 0.407067C3.525 0.43146 3.47161 0.467211 3.42666 0.512272L0.209884 3.72905C0.173999 3.76486 0.145529 3.8074 0.126104 3.85422C0.106678 3.90105 0.0966797 3.95125 0.0966797 4.00195C0.0966797 4.05265 0.106678 4.10285 0.126104 4.14968C0.145529 4.1965 0.173999 4.23904 0.209884 4.27485L3.42666 7.49163C3.61634 7.68131 3.92214 7.68131 4.11182 7.49163C4.3015 7.30195 4.3015 6.99614 4.11182 6.80647L1.30924 4.00001L4.11569 1.19356C4.3015 1.00776 4.3015 0.698079 4.11182 0.512272Z" fill="#4B5563"/>
</svg>
